<?xml version="1.0" encoding="UTF-8"?>
<svg id="Capa_2" data-name="Capa 2" xmlns="http://www.w3.org/2000/svg" viewBox="0 0 681.39 430.79">
  <defs>
    <style>
      .cls-1 {
        fill: #cda45d;
      }
    </style>
  </defs>
  <g id="Capa_1-2" data-name="Capa 1">
    <g>
      <g>
        <path class="cls-1" d="M17.5,139.26c0-2.23-.09-10.34-.85-11.45,5.93-.09,15.35-.47,19.02-.47,11.49,0,19.21,3.73,19.21,15.09,0,6.24-2.35,12.01-8.47,14.9,6.68,2.05,10.83,7.91,10.83,14.62,0,2.7-.66,8.29-4.33,12.39-4.52,5.03-11.49,5.4-20.34,5.4-6.31,0-9.32-.19-15.91-.28,.66-.93,.85-7.26,.85-11.27v-38.92Zm9.89,14.53c1.41,0,3.48,.19,5.46,.19,5.74,0,11.96-1.58,11.96-10.15,0-6.89-3.95-9.87-12.52-9.87-1.51,0-3.2,.09-4.9,.37v19.46Zm0,27.66c2.64,.19,4.14,.37,6.78,.37,6.87,0,12.81-1.3,12.81-10.24,0-7.17-3.86-10.52-11.86-10.52-3.01,0-5.55,0-7.72,.09v20.3Z"/>
        <path class="cls-1" d="M108.93,189.45c-.09-2.7-2.26-7.54-6.78-17.51h-22.6l-3.2,7.63c-2.82,6.71-3.11,8.01-3.3,9.87h-11.77c1.6-.56,4.99-6.8,6.78-10.99l23.35-53.82,24.29,54.57c2.54,5.59,4.14,9.69,5.93,10.24h-12.71Zm-18.27-43.21l-8,18.44h16.19l-8.19-18.44Z"/>
        <path class="cls-1" d="M170.6,189.45l-19.58-23.93c-1.32-1.58-2.35-1.77-3.67-1.77h-7.06v14.81c0,2.79,.19,9.13,1.13,10.89h-11.96c.94-1.3,.94-7.91,.94-11.08v-38.55c0-3.82-.09-11.08-1.04-12.01,5.37,0,15.16-.56,19.02-.56,15.16,0,22.6,8.75,22.6,17.69,0,5.4-2.73,14.06-12.15,16.39,1.51,.09,7.53,8.94,19.3,22.26,3.11,3.54,4.71,5.21,7.25,5.87h-14.78Zm-22.6-33.15c6.12-.09,12.62-1.77,12.62-10.15,0-7.08-4.61-11.92-14.03-11.92-1.88,0-4.05,.18-6.31,.56v21.7l7.72-.19Z"/>
      </g>
      <g>
        <path class="cls-1" d="M413.61,392.59c.4-.93,.86-1.6,1.38-2.03,.52-.43,.95-.47,1.27-.13,.32,.34,.34,1.13,.05,2.38-1.12,4.6-2.97,9.31-5.57,14.14-2.59,4.83-5.68,8.93-9.27,12.29s-7.41,5.12-11.48,5.26c-3.42,.07-6.8-1.36-10.13-4.3-3.33-2.94-5.67-7.65-7.02-14.14-1.35-6.48-.78-15,1.7-25.55,2.05-7.98,4.53-14.52,7.43-19.61,2.9-5.09,5.87-8.98,8.92-11.65,3.04-2.67,5.81-4.38,8.3-5.13,1.87-.5,3.75-.45,5.62,.16,1.87,.6,3.31,1.17,4.32,1.71h.11c.25,.14,.5,.23,.76,.27,.36,0,.7-.09,1.03-.27,.11-.04,.23-.07,.38-.11,1.12-.32,2.25-.23,3.4,.27,.86,.32,1.69,.73,2.49,1.23,.79,.5,1.4,1.14,1.84,1.93,.9,1.82,1.02,3.75,.35,5.8-.67,2.05-1.97,4.12-3.92,6.23-.54,.53-1.27,.99-2.19,1.36-.92,.37-1.65,.36-2.19-.03-.86-.86-1.49-1.93-1.87-3.23-.38-1.3-.46-2.54-.24-3.71,0-.07,.02-.18,.05-.32,.14-.5,.25-1.11,.32-1.85,.07-.73-.05-1.39-.35-1.98-.31-.59-.95-.9-1.92-.93-3.53,0-7.4,2.79-11.59,8.36-4.2,5.58-7.54,13.5-10.03,23.76-1.33,6.09-1.96,11.18-1.86,15.26,.09,4.08,.65,7.32,1.68,9.73,1.03,2.41,2.29,4.11,3.78,5.1s2.95,1.5,4.35,1.5c2.45,0,4.94-.98,7.49-2.94,2.54-1.96,4.91-4.57,7.1-7.83,2.2-3.26,4.03-6.92,5.51-10.98Z"/>
        <path class="cls-1" d="M428.31,380.3c2.52,.93,4.21,2.64,5.05,5.13s1.14,5.2,.89,8.12c-.29,3.49-.85,6.43-1.68,8.82-.61,2-1.54,3.97-2.78,5.91-1.24,1.94-2.78,3.41-4.62,4.41-2.05,.93-4.07,1-6.05,.22-1.98-.78-3.57-2.07-4.76-3.85-1.59-2.64-2.29-5.37-2.11-8.2s.65-5.67,1.4-8.53c.04-.14,.07-.28,.11-.43,.25-1.46,.86-3.32,1.84-5.56s2.47-4.07,4.48-5.48,4.76-1.59,8.21-.56Zm-2.7,22.55c1.19-1.93,2.09-4.23,2.7-6.92,.61-2.69,.89-5.1,.84-7.24s-.46-3.35-1.22-3.63c-1.55-.18-2.95,.47-4.21,1.95s-2.13,3-2.59,4.57c-.76,2.96-1.19,5.97-1.3,9.03-.04,.53-.07,1.05-.11,1.55-.07,1.21,.05,2.14,.35,2.78s.67,1.07,1.08,1.28c.41,.21,.73,.27,.95,.16,1.48-.78,2.65-1.96,3.51-3.53Z"/>
        <path class="cls-1" d="M460.79,375.01c1.15,1,2.02,2.19,2.59,3.58,.18,.53,.27,1.11,.27,1.71s-.2,1.16-.59,1.66c-.4,.43-.84,.68-1.32,.75-.49,.07-1,.04-1.54-.11-.4-.14-.62-.36-.67-.64-.05-.28-.05-.6,.03-.96,.03-.29,.04-.55,.03-.8-.02-.25-.13-.46-.35-.64-.86-.46-2.16-.26-3.89,.61-1.73,.87-3.49,2.11-5.3,3.71-.83,.82-1.66,1.99-2.49,3.5-.83,1.51-1.38,3.03-1.65,4.54-.27,1.51,.04,2.66,.94,3.45,1.44,.96,2.95,1.6,4.54,1.92,1.33,.29,2.65,.78,3.94,1.5,1.44,.86,2.5,1.77,3.16,2.75,.67,.98,1,2.24,1,3.77,.04,.5-.02,1.01-.16,1.55-.29,.96-.83,1.79-1.62,2.48-.79,.7-1.64,1.28-2.54,1.74-2.23,1.21-4.81,2.13-7.73,2.75-2.92,.63-5.46,.1-7.62-1.58-1.01-.96-1.73-2.14-2.16-3.53-.43-1.11-.56-2.24-.38-3.42,.29-1.25,.97-2.1,2.05-2.57,.22-.11,.44-.14,.67-.11,.23,.04,.41,.16,.52,.37,.07,.14,.09,.3,.05,.48-.04,.18-.11,.34-.22,.48-.11,.14-.23,.28-.38,.43-.11,.07-.2,.16-.27,.27-.43,.53-.63,1.14-.59,1.82,.04,.39,.18,.73,.43,1.01,.29,.29,.63,.43,1.03,.43s.77-.04,1.13-.11c4-.89,7.62-2.65,10.86-5.29,.07-.07,.14-.14,.22-.22,.07-.07,.13-.16,.16-.27,.04-.25-.02-.43-.16-.56-.14-.12-.32-.21-.54-.27-.22-.05-.4-.08-.54-.08-2.63-.29-5.17-.98-7.62-2.09-4.18-1.78-6.3-4.28-6.35-7.48-.05-3.21,1.11-6.59,3.49-10.16,1.44-2.17,3.62-4.32,6.54-6.44s5.6-3.22,8.05-3.29c.65,.07,1.22,.3,1.73,.69,1.15,.78,2.23,1.66,3.24,2.62Z"/>
        <path class="cls-1" d="M503.42,366.3c-.04,1.03-.38,1.65-1.03,1.84-.65,.2-1.38,.19-2.19-.03-.81-.21-1.45-.43-1.92-.64-5.15-2.14-11.01-3.22-17.56-3.26-.68,.04-1.4,.05-2.16,.05s-1.44,.02-2.16,.05c-1.8,9.16-3.21,18.95-4.21,29.37-1.01,10.42-1.3,20.23-.86,29.42v.32c.9-.71,1.48-1.6,1.73-2.67,.4-.07,.68,.1,.86,.51s.25,.85,.22,1.31c-.14,1.32-.45,2.6-.92,3.85-.47,1.25-1.22,2.28-2.27,3.1-1.8,1.32-3.25,1.6-4.35,.86-1.1-.75-1.9-1.94-2.4-3.58s-.77-3.14-.81-4.49c-.32-6.56-.22-13.73,.32-21.51,.54-7.78,1.35-14.97,2.43-21.57,.86-4.92,1.89-9.8,3.08-14.64-3.13,.18-6.11,.61-8.92,1.28-.76,.18-1.53,.43-2.32,.75-1.19,.46-2.36,.78-3.51,.96-1.08,.11-2.06-.2-2.95-.93-.88-.73-1.47-1.63-1.75-2.7-.29-1.07-.07-2.08,.65-3.05,.4-.46,.71-.7,.95-.72s.51,.06,.84,.24c.18,.14,.41,.27,.7,.37,.5,.18,1.06,.25,1.68,.21,.61-.04,1.22-.12,1.84-.27,.25-.04,.5-.07,.76-.11,4.14-.6,8.57-.94,13.29-1.01,.29-1.21,.59-2.44,.92-3.69,.94-4.56,2.22-8.94,3.84-13.15,.04-.04,.05-.09,.05-.16,.11-.28,.29-.67,.54-1.15,.25-.48,.67-.9,1.24-1.26s1.37-.5,2.38-.43c.97,.14,1.57,.62,1.81,1.44,.23,.82,.21,1.71-.08,2.67-1.4,5.13-2.67,10.35-3.78,15.66,1.51,.04,2.99,.05,4.43,.05,3.39,.04,6.75,.21,10.1,.53,1.69,.14,3.39,.34,5.08,.59,.22,.04,.45,.07,.7,.11,1.15,.04,2.25,.36,3.3,.96,1.55,1.14,2.36,2.64,2.43,4.49Z"/>
        <path class="cls-1" d="M500.67,378.48c1.26-.35,2.4,.01,3.4,1.1,1.01,1.09,1.46,2.43,1.35,4.03-.07,.82-.14,1.46-.22,1.92-.07,.46-.18,.89-.32,1.28-.14,.39-.36,.87-.65,1.44-.07,.18-.14,.37-.22,.59-.94,2.17-1.79,4.97-2.57,8.39-.78,3.42-1.2,6.63-1.27,9.62-.07,2.99,.47,4.97,1.62,5.93,1.37,.93,2.09,1.77,2.16,2.54,.07,.77-.76,1.27-2.49,1.52-2.59,.21-4.7-.35-6.32-1.68-1.62-1.34-2.68-2.79-3.19-4.36-.68-1.92-.98-4.05-.89-6.39s.42-5.25,1-8.74c.04-.07-.54,.81-1.73,2.65s-3.22,5.02-6.11,9.54c-.4,.68-.9,1.25-1.51,1.71-.61,.46-1.26,.68-1.95,.64-1.4-.14-2.53-.88-3.38-2.22-.85-1.34-1.24-2.81-1.16-4.41,.25-4.42,1.08-8.35,2.49-11.78,1.4-3.44,3.6-6.49,6.59-9.17,1.01-.82,2.08-1.19,3.21-1.12,1.13,.07,2.16,.38,3.08,.93,.92,.55,1.54,1.17,1.87,1.85,.29,.64,.34,1.18,.16,1.63s-.56,.63-1.13,.56c-.54-.07-1.03,0-1.46,.24-.43,.23-.85,.56-1.24,.99-3.42,3.42-5.87,7.62-7.35,12.61,.04,0,.05,.02,.05,.05l-.05-.11c1.51-1.6,3.37-3.71,5.57-6.33,2.2-2.62,4.3-5.18,6.3-7.7s3.43-4.41,4.3-5.69c.04-.07,.18-.26,.43-.56s.52-.6,.81-.91c.29-.3,.56-.51,.81-.62Z"/>
        <path class="cls-1" d="M574.27,343.48c6.34-.75,12.02-.26,17.05,1.47,5.03,1.73,8.83,4.45,11.4,8.15,2.58,3.71,3.36,8.14,2.35,13.31-1.44,6.02-4.18,11.26-8.21,15.71s-7.96,7.45-11.78,9c-3.82,1.55-8.03,2.47-12.64,2.75,2.92,4.52,6.74,8.84,11.46,12.96,4.72,4.12,9.91,7.83,15.56,11.14,.9,.64,.95,1.27,.14,1.87-.81,.61-2.22,.88-4.21,.83s-4.33-.79-7-2.22c-4.57-2.64-8.46-5.79-11.65-9.46-3.19-3.67-6.21-7.59-9.05-11.76-.32-.43-.75-.79-1.27-1.1-.52-.3-1.03-.33-1.51-.08s-.8,.96-.95,2.14c-.32,2.64-.65,5.24-.97,7.8-.43,3.24-.81,6.5-1.13,9.78-.07,.57-.11,1.28-.11,2.14,0,1.28-.06,2.64-.19,4.09-.13,1.44-.45,2.66-.97,3.66-.52,1-1.36,1.51-2.51,1.55-1.01-.07-1.93-.41-2.76-1.02s-1.44-1.35-1.84-2.24c-.54-1.28-.86-2.62-.97-4.01-.4-4.24-.44-8.55-.14-12.93,.31-4.38,.82-8.73,1.54-13.04-1.73-.78-2.98-1.8-3.76-3.05-.77-1.25-.69-2.85,.24-4.81,.22-.5,.54-.89,.97-1.18,.32-.18,.71-.26,1.16-.24,.45,.02,.89,.08,1.32,.19,.14,0,.31,.02,.49,.05,.32,.04,.65,.09,.97,.16,.11,0,.2,.02,.27,.05,2.02-9.69,4.72-19.2,8.11-28.54,.07-.21,.03-.39-.13-.53-.16-.14-.37-.19-.62-.16-.07,.04-.14,.05-.22,.05-.5,.11-.99,.23-1.46,.37-.5,.22-1.01,.43-1.51,.64-3.21,1.14-6.25,2.64-9.13,4.49-1.66,1.11-3.32,2.32-5,3.63-1.68,1.32-3.13,2.78-4.35,4.38-.25,.32-.29,.54-.11,.67,.18,.13,.48,.18,.89,.16,.41-.02,.84-.06,1.27-.13,.29,0,.55,0,.79-.03,.23-.02,.4-.03,.51-.03,.29,.11,.33,.3,.13,.59-.2,.29-.54,.59-1.03,.91s-1.04,.59-1.65,.8c-1.8,.57-3.16,.79-4.08,.67s-1.49-.37-1.7-.72c-.36-.46-.54-1.03-.54-1.71s.16-1.26,.49-1.76c3.49-5.88,8.66-11.27,15.48-16.17,6.83-4.9,14.35-7.99,22.56-9.27Zm22.21,22.82c.76-3.74,.12-6.84-1.92-9.3-2.04-2.46-5.06-3.99-9.08-4.6-4.02-.61-8.64,0-13.86,1.82-.11,.04-.13,.11-.08,.21,.05,.11,.14,.22,.27,.35,.13,.13,.24,.24,.35,.35,.07,.07,.14,.14,.22,.21,1.26,1.35,1.49,2.89,.7,4.6-3.21,8.12-5.4,16.5-6.59,25.12-.04,.21-.05,.42-.05,.62s.05,.36,.16,.51c.11,.14,.23,.25,.38,.32,.14,.07,.31,.12,.49,.16,1.08,.29,2.16,.45,3.24,.48,2.05,.14,4.83-.3,8.32-1.34,3.49-1.03,6.9-3.17,10.21-6.41,3.31-3.24,5.73-7.61,7.24-13.09Z"/>
        <path class="cls-1" d="M619.83,391.79c.32,.14,.52,.45,.59,.91,.07,.46,.04,.87-.11,1.23-.72,2.07-1.35,4.06-1.89,5.99-.58,2.1-1.22,4.15-1.95,6.15-.72,2-1.66,3.96-2.81,5.88-.32,.53-.82,1.24-1.49,2.11-.67,.87-1.49,1.68-2.49,2.4-.99,.73-2.1,1.13-3.32,1.2-1.51-.04-2.77-.43-3.78-1.18s-1.71-1.51-2.11-2.3c-.79-1.5-1.22-3.33-1.3-5.5-.07-2.17,0-4.12,.22-5.83,.58-6.2,1.71-12.24,3.4-18.12,.04-.18,.09-.43,.16-.75,.07-.36,.16-.73,.27-1.12,.11-.39,.23-.68,.38-.86,0-.04,.02-.05,.05-.05,.22-.21,.55-.34,1-.37,.45-.04,.82-.04,1.11,0,1.33,.25,2.49,.96,3.46,2.14,.97,1,1.33,2.23,1.08,3.69l-1.51,6.84c0,.07-.02,.16-.05,.27-.9,4.21-1.46,7.5-1.68,9.89-.22,2.39-.23,4.08-.05,5.08s.45,1.51,.81,1.55c1.04,.14,2-.19,2.86-1.01,.86-.82,1.53-1.69,2-2.62,1.59-3.03,2.79-6.04,3.62-9.03,.47-1.6,1.01-3.26,1.62-4.97,.14-.43,.36-.83,.65-1.2,.29-.37,.7-.51,1.24-.4Zm-8.75-26.24c-.54,.29-1.12,.31-1.73,.08-.61-.23-1.04-.65-1.3-1.25-.11-.32-.16-.64-.16-.96v-.43c0-.21,.02-.43,.05-.64,.04-.43,.09-.84,.16-1.23,.65-2.06,1.33-4.1,2.05-6.09,.18-.46,.41-.75,.68-.86,.27-.11,.6-.12,1-.05,2.09,.43,3.6,1.73,4.54,3.9,.4,.75,.38,1.5-.05,2.24-.58,1.03-1.2,1.97-1.87,2.8-.67,.84-1.52,1.44-2.57,1.79-.18,.07-.34,.2-.49,.37-.11,.11-.22,.21-.32,.32Z"/>
        <path class="cls-1" d="M647.39,391.2c.22-.07,.45-.07,.7,0,.25,.07,.43,.23,.54,.48,.14,.25,.18,.53,.11,.86-.07,.32-.2,.63-.38,.91-.54,1.07-1.12,2.28-1.73,3.63-.83,1.82-1.78,3.7-2.84,5.64-1.06,1.94-2.32,3.76-3.76,5.45s-3.15,3.07-5.13,4.14-4.32,1.6-7.02,1.6c-1.8,0-3.31-.42-4.51-1.25-1.21-.84-2.18-1.89-2.92-3.15s-1.28-2.56-1.62-3.87c-.34-1.32-.57-2.48-.68-3.47-.79-7.84,.43-15.3,3.67-22.39,.72-1.5,1.62-2.67,2.7-3.53,1.08-.85,2.43-1.16,4.05-.91,.58,.11,1.19,.27,1.84,.48,.68,.25,1.39,.45,2.11,.59s1.41,.11,2.05-.11c.14-.07,.31-.14,.49-.21,.29-.14,.58-.23,.86-.27,.79-.11,1.51,.09,2.16,.59,1.77,1.35,2.31,3.15,1.62,5.4-.5,1.53-1.13,3.01-1.89,4.44-.14,.25-.27,.52-.38,.8-.14,.39-.32,.77-.54,1.15s-.47,.67-.76,.88c-.47,.29-.97,.4-1.51,.35-.54-.05-1.04-.22-1.51-.51-1.08-.78-1.71-1.91-1.89-3.37,0-.18-.04-.36-.11-.56-.07-.19-.16-.33-.27-.4-.07-.04-.14-.05-.22-.05-.14,.04-.27,.09-.38,.16-.86,.71-1.55,1.62-2.05,2.73-.5,1.1-.92,2.23-1.24,3.37-.11,.36-.23,.71-.38,1.07-1.04,2.96-1.66,6.02-1.84,9.19-.04,2.67,.3,4.74,1,6.2,.7,1.46,1.61,2.19,2.73,2.19,2.13,0,4.08-.56,5.86-1.68,1.78-1.12,3.4-2.51,4.84-4.17s2.7-3.35,3.78-5.08c1.08-1.73,1.98-3.25,2.7-4.57,.86-1.6,1.44-2.51,1.73-2.73Z"/>
        <path class="cls-1" d="M668.62,378.48c1.26-.35,2.4,.01,3.4,1.1,1.01,1.09,1.46,2.43,1.35,4.03-.07,.82-.14,1.46-.22,1.92-.07,.46-.18,.89-.32,1.28-.14,.39-.36,.87-.65,1.44-.07,.18-.14,.37-.22,.59-.94,2.17-1.79,4.97-2.57,8.39-.78,3.42-1.2,6.63-1.27,9.62-.07,2.99,.47,4.97,1.62,5.93,1.37,.93,2.09,1.77,2.16,2.54,.07,.77-.76,1.27-2.49,1.52-2.59,.21-4.7-.35-6.32-1.68-1.62-1.34-2.68-2.79-3.19-4.36-.68-1.92-.98-4.05-.89-6.39s.42-5.25,1-8.74c.04-.07-.54,.81-1.73,2.65s-3.22,5.02-6.11,9.54c-.4,.68-.9,1.25-1.51,1.71-.61,.46-1.26,.68-1.95,.64-1.4-.14-2.53-.88-3.38-2.22-.85-1.34-1.24-2.81-1.16-4.41,.25-4.42,1.08-8.35,2.49-11.78,1.4-3.44,3.6-6.49,6.59-9.17,1.01-.82,2.08-1.19,3.21-1.12,1.13,.07,2.16,.38,3.08,.93,.92,.55,1.54,1.17,1.87,1.85,.29,.64,.34,1.18,.16,1.63s-.56,.63-1.13,.56c-.54-.07-1.03,0-1.46,.24-.43,.23-.85,.56-1.24,.99-3.42,3.42-5.87,7.62-7.35,12.61,.04,0,.05,.02,.05,.05l-.05-.11c1.51-1.6,3.37-3.71,5.57-6.33,2.2-2.62,4.3-5.18,6.3-7.7s3.43-4.41,4.3-5.69c.04-.07,.18-.26,.43-.56s.52-.6,.81-.91c.29-.3,.56-.51,.81-.62Z"/>
      </g>
      <g>
        <path class="cls-1" d="M553.4,164h-31.44l-19.62,25.45h20.73l30.33-25.45Zm-22.82,7.15c-2.09,4.54-6.54,9.08-10.99,11.14,1.95-4.54,6.54-9.08,10.99-11.14Z"/>
        <path class="cls-1" d="M245.12,322.78v1.65h53v-1.65s-13.49-1.51-13.49-8.39v-101.13h18.64l7.09,21.6h2.5l15.3-29.44h-112.96l15.3,29.44h2.5l6.12-21.6h19.34v101.13c.14,7.43-13.36,8.39-13.36,8.39Zm26.71-105.53c1.81,31.78,1.81,64.11,0,95.9-1.81-31.78-1.81-64.11,0-95.9Z"/>
        <polygon class="cls-1" points="409.7 217.25 409.7 217.25 409.7 217.25 409.7 217.25"/>
        <path class="cls-1" d="M681.25,205.28h-37.28v1.65l15.3,8.39,.56,74.16-56.62-84.2h-31.86v1.65l10.16,13.35v93.97c0,7.98-13.35,8.39-13.35,8.39v1.65h34.92v-1.65s-13.36,.83-13.36-8.39-.56-86.68-.56-86.68l63.71,96.72h13.77v-108.97l14.75-8.39v-1.65h-.14Zm-84.58,11.97s0,0,0,0h0s0,0,0,0c21.01,28.34,40.9,57.92,58.98,88.19-21.15-28.34-40.9-57.92-58.98-88.19Z"/>
        <polygon class="cls-1" points="596.67 217.25 596.67 217.25 596.67 217.25 596.67 217.25"/>
        <path class="cls-1" d="M450.46,310.12c-21.42-.83-44.8-26.83-55.37-36.32,23.65-6.74,37.56-22.01,37.56-36.87s-11.27-30.27-39.65-31.51h-58.57v1.65l10.85,8.39v51.32c-11.27-4.82-17.39-13.9-23.37-18.44v19.12c5.29,2.48,10.71,5.78,23.37,7.84v38.94c0,6.47-11.82,8.39-11.82,8.39v1.65h54.95v-1.65s-16.83-3.03-16.83-8.39v-37.01h-3.34c5.01,0,13.08-.83,13.08-.83,0,0,4.87,7.57,5.01,7.57,11.41,17.61,29.49,44.03,43.54,44.03s20.59-9.63,20.59-17.89Zm-92.23,3.03c-1.81-31.78-1.81-64.11,0-95.9,1.67,31.78,1.67,64.11,0,95.9Zm60.24-73.33c.56-8.39-2.92-16.51-8.76-22.56,0,0,0,0,0,0h0s0,0,0,0c7.51,4.68,11.96,13.9,11.41,22.7-.42,6.74-4.31,12.8-9.32,17.2-1.67,1.38-3.48,2.75-5.43,3.71,6.12-5.5,11.55-12.8,12.1-21.05Zm-47.02,31.37v-60.12h8.76c15.72,0,26.15,2.06,26.15,24.77,0,32.47-34.92,35.36-34.92,35.36Zm59.68,45.4c-12.1-3.99-27.96-21.74-35.34-32.2,6.12,6.05,11.96,12.11,18.22,18.02,3.06,2.89,6.26,5.78,9.46,8.39,3.34,2.48,6.68,5.37,10.99,6.05-1.25,.14-2.23,0-3.34-.28Z"/>
        <path class="cls-1" d="M509.44,203.63c-32.14,0-58.01,30.82-58.01,61.5s25.88,62.05,58.01,62.05,58.01-31.37,58.01-62.05-26.01-61.5-58.01-61.5Zm-35.47,96.59c-6.26-9.91-9.04-21.6-9.04-33.16,0-14.86,3.62-31.64,13.36-43.34-6.12,9.63-9.04,20.91-10.29,32.06-1.39,13.07-.42,26.55,4.73,38.66,1.81,4.4,4.03,8.53,6.82,12.38,.56,.83,1.11,1.51,1.81,2.2-3.06-2.34-5.29-5.5-7.37-8.81Zm35.47,21.19c-17.11,0-27.54-23.39-27.54-56.13s10.43-55.72,27.54-55.72,27.54,22.98,27.54,55.72-10.57,56.13-27.54,56.13Zm34.92-21.19c-2.09,3.3-4.45,6.33-7.37,8.94,.7-.69,1.25-1.51,1.81-2.2,2.78-3.85,5.01-7.98,6.82-12.38,5.01-12.25,6.12-25.73,4.73-38.66-1.25-11.14-4.17-22.43-10.16-32.06,9.74,11.69,13.36,28.48,13.36,43.34-.14,11.42-3.06,23.25-9.18,33.02Z"/>
        <path class="cls-1" d="M184.47,322.78v1.65h48.55v-1.65s-7.93-1.38-11.82-9.36c-1.39-2.89-7.93-17.75-15.58-35.5,3.48-.55,7.09-.83,10.71-.83l-8.07-18.3c-2.64,0-5.98,1.1-9.74,3.03-6.82-15.96-13.77-31.92-18.22-42.1l12.24-12.11v-2.48h-49.39v1.65l12.1,19.4c-5.01,11.42-11.82,26.97-18.22,41.83-7.51-5.78-14.47-9.91-19.34-9.91l-7.93,17.75c8.07,0,15.44,1.65,22.12,4.13-7.93,17.89-14.47,32.61-15.44,34.53-2.64,5.09-6.26,8.12-11.27,8.12v1.65h29.63v-1.65c-7.37,0-12.8-2.48-10.29-8.12,.56-1.1,6.68-15.55,13.49-31.92,10.02,4.82,17.81,11.01,23.23,15,4.45-3.3,11.41-7.84,19.75-11.97,6.12,13.48,11.55,25.04,12.94,27.65,3.9,7.15-9.46,9.49-9.46,9.49Zm-64.27-54.21c7.79,.55,16.28,5.37,21.84,10.73-7.23-3.3-14.33-7.57-21.84-10.73Zm41.6,21.05c-5.7-5.09-12.52-11.56-19.48-17.2,8.07-19.12,15.72-37.56,15.72-37.56,0,0,9.6,21.33,18.78,41.69-5.29,4.54-10.71,9.22-15.02,13.07Zm2.5-72.78c15.72,31.23,30.19,63.7,42.57,96.31-15.72-31.23-30.05-63.7-42.57-96.31Z"/>
        <path class="cls-1" d="M110.6,239.12c0-15.55-11.27-32.47-39.65-33.85H12.38v1.65l10.85,8.39v51.32c-11.13-4.68-17.39-13.76-23.23-18.3v19.12c5.29,2.48,10.71,5.78,23.37,7.84v38.94c0,8.39-11.82,8.39-11.82,8.39v1.65h54.95v-1.65s-16.83,.14-16.83-8.39v-37.15c37.56-.83,60.93-18.71,60.93-37.97Zm-11.82-4.95c1.39,6.88-.97,14.17-5.01,19.81-2.64,3.71-5.7,7.15-9.46,9.77,2.92-3.44,5.56-7.02,7.79-10.87,2.64-4.82,4.59-9.91,4.45-15.27-.14-7.7-3.62-15-8.9-20.5,5.98,3.85,10.02,10.32,11.13,17.06Zm-63.16,78.97c-1.81-31.78-1.81-64.11,0-95.9,1.81,31.78,1.81,64.11,0,95.9Zm13.63-41.96l.14-59.99h8.76c15.72,0,26.15,6.05,26.15,26.97,0,16.79-7.79,29.03-22.54,32.33-3.76,.41-7.93,.69-12.52,.69Z"/>
      </g>
      <g>
        <path class="cls-1" d="M228.22,103.33c-4.45,5.09-7.65,11.83-8.63,18.57,5.98-4.13,8.49-5.23,15.72-5.78-5.56-2.48-7.09-7.02-7.09-12.8Z"/>
        <path class="cls-1" d="M301.67,58.61c-6.96,.55-14.33,1.65-21.01,3.85,1.67,1.65,3.34,3.44,4.03,5.64,5.43-4.13,11.13-6.88,16.97-9.49Z"/>
        <path class="cls-1" d="M269.4,87.78c-.56,.55-1.39,1.1-2.36,1.1-4.31,0-10.16-3.3-15.44-3.3-1.81,0-7.23,.55-7.23,2.89,0,.69,.7,1.1,1.39,1.1,1.39,0,2.36-1.51,5.7-1.51,5.29,0,10.57,3.3,15.44,3.3,1.53,0,3.2-.96,4.03-1.79,.56-.41,1.11-1.24,.56-2.06-.7-.69-1.67-.41-2.09,.28Z"/>
        <path class="cls-1" d="M230.17,128.09c-1.53,0-3.2,1.1-3.62,1.38-.42,.41-.7,1.24-.28,1.79s1.25,.41,1.81,.14c.28-.28,1.25-.83,2.09-.83,1.95,0,3.34,1.93,3.34,3.71,0,2.61-2.5,4.4-5.01,4.4-3.48,0-5.98-3.3-5.98-6.6,0-4.68,4.45-7.43,8.35-8.26,.7-.14,1.53-.55,1.39-1.51,0-.96-1.11-1.1-1.81-.96-5.7,1.1-10.43,4.82-10.43,10.73,0,4.68,3.76,9.08,8.63,9.08,3.9,0,7.65-3.03,7.65-7.02,0-3.3-2.5-6.33-6.12-6.05Z"/>
        <path class="cls-1" d="M411.16,117.91c0-6.33-3.2-13.9-7.1-18.99,1.67,8.67-1.53,20.64-5.15,28.34h0c6.4,.69,12.1-1.93,12.24-9.36Z"/>
        <path class="cls-1" d="M264.81,146.25c1.81,2.06,4.45,3.3,7.23,3.3,4.59,0,7.65-3.58,7.65-7.98,0-1.79-.42-3.71-.97-5.37-2.92,5.37-7.09,11.01-13.91,10.04Z"/>
        <path class="cls-1" d="M402.81,136.21c-.56,1.79-.97,3.58-.97,5.37,0,4.4,3.06,7.98,7.65,7.98,2.78,0,5.43-1.24,7.23-3.3-6.82,.96-10.99-4.68-13.91-10.04Z"/>
        <path class="cls-1" d="M450.8,121.08c-.7-.14-1.67,0-1.81,.96,0,.96,.7,1.38,1.39,1.51,3.9,.83,8.35,3.58,8.35,8.26,0,3.3-2.5,6.6-5.98,6.6-2.5,0-5.01-1.79-5.01-4.4,0-1.79,1.39-3.71,3.34-3.71,.7,0,1.67,.55,2.09,.83,.56,.28,1.39,.41,1.81-.14,.56-.55,.28-1.38-.28-1.79-.42-.28-2.09-1.38-3.62-1.38-3.48,0-5.98,3.03-5.98,6.33,0,3.99,3.76,7.02,7.65,7.02,5.01,0,8.63-4.4,8.63-9.08,0-5.92-4.59-9.63-10.57-11.01Z"/>
        <path class="cls-1" d="M411.57,84.62c6.26,0,12.38-3.3,18.5-3.3,8.76,0,16.69,10.04,16.69,18.3s-6.54,14.31-14.47,14.31c-6.12,0-11.27-5.09-11.27-11.14,0-4.68,4.03-8.67,8.76-8.67,3.62,0,6.68,3.03,6.68,6.6,0,1.38-.56,2.75-1.67,3.58-.14-2.06-1.81-3.71-3.9-3.71-2.23,0-3.9,1.65-3.9,3.85,0,2.48,2.09,4.13,4.45,4.13,4.59,0,7.93-4.13,7.93-7.84,0-5.23-4.31-9.49-9.6-9.49-6.4,0-11.69,5.23-11.69,11.56,0,5.23,3.06,10.18,7.79,12.52-3.62,2.34-5.7,6.33-5.7,10.59,0,5.64,4.73,10.46,10.57,10.46,2.37,0,4.59-.96,6.26-2.61,.28,8.39,7.37,15,15.72,15,11.69,0,15.86-9.36,15.86-19.4,.14-22.56-22.12-48.98-42.85-57.24-.56-.28-1.39-.41-1.67,.41-.28,.83,0,1.38,1.11,1.79,1.11,.41,6.68,3.99,7.51,4.54-6.54-.41-14.61,3.03-21.01,3.03-4.17,0-8.49-3.16-8.49-7.57,0-3.16,2.37-6.47,5.84-6.47,2.36,0,4.87,1.79,4.87,4.27,0,3.58-1.81,2.75-1.81,4.13,0,.83,.7,1.38,1.53,1.38,1.95,0,3.2-2.75,3.2-5.09,0-4.54-3.9-7.7-7.93-7.7-5.01,0-8.76,4.54-8.76,9.36,0,5.92,5.56,10.46,11.41,10.46Zm54.26,44.72c0,8.26-2.78,16.51-12.94,16.51-7.1,0-12.8-5.78-12.8-12.66,0-3.58,.97-5.23,2.78-8.12l.28-.69c.42-.69-.28-1.65-1.11-1.65-1.53,0-2.23,1.38-2.92,2.61-1.11-2.75-3.76-4.68-6.82-4.68-3.34,0-6.12,2.75-6.12,6.05,0,.96,.7,1.38,1.39,1.38,2.36,0,.56-4.54,4.59-4.54,2.36,0,4.31,1.93,4.31,4.27,0,3.16-2.64,5.64-5.7,5.64-4.17,0-7.51-3.44-7.51-7.43,0-4.95,2.78-7.15,6.68-9.22,10.29,1.79,19.89-6.74,19.89-16.92,0-2.75-.7-5.37-1.67-7.84,10.29,10.59,17.67,22.01,17.67,37.29Z"/>
        <path class="cls-1" d="M446.21,116.12c7.23,.55,9.74,1.65,15.72,5.78-.97-6.74-4.17-13.48-8.63-18.57,0,5.78-1.53,10.32-7.09,12.8Z"/>
        <path class="cls-1" d="M400.86,62.46c-6.68-2.2-13.91-3.3-21.15-3.85,5.84,2.61,11.55,5.5,16.97,9.49,.7-2.2,2.5-4.13,4.17-5.64Z"/>
        <path class="cls-1" d="M282.75,127.4c-3.76-7.7-6.82-19.81-5.15-28.34-3.9,5.09-7.09,12.66-7.09,18.99,0,7.29,5.7,9.91,12.24,9.36Z"/>
        <path class="cls-1" d="M435.92,89.29c.56,0,1.39-.28,1.39-1.1,0-2.34-5.43-2.89-7.23-2.89-5.29,0-11.13,3.3-15.44,3.3-.83,0-1.81-.55-2.37-1.1-.56-.55-1.67-.83-2.23,0-.56,.83,.14,1.65,.56,2.06,.83,.83,2.5,1.79,4.03,1.79,4.87,0,10.02-3.3,15.44-3.3,3.48,0,4.45,1.51,5.84,1.24Z"/>
        <path class="cls-1" d="M340.76,60.26c-24.35,0-49.39,12.93-49.39,39.76s25.6,53.25,49.39,63.98c23.79-10.73,49.39-36.6,49.39-63.98s-25.04-39.76-49.39-39.76Zm0,99.2c-2.64-.83-10.99-5.78-12.94-7.57,4.17,1.65,8.49,3.16,12.94,4.4,4.45-1.24,8.76-2.61,12.94-4.4-2.09,1.93-10.29,6.74-12.94,7.57Zm41.87-73.75c-4.73,3.71-9.74,7.15-15.02,10.18,5.98,.96,12.1,1.65,18.22,1.93l.14,2.75c-5.43,4.4-11.13,8.39-17.11,11.83,4.87,.69,9.74,.96,14.75,1.1l-.83,2.34c-5.84-.28-11.55-.69-17.25-1.65-6.82,3.71-13.77,6.88-21.15,9.49,7.23,2.06,14.75,3.58,22.26,4.54,5.29-3.03,10.43-6.33,15.3-10.04-.7,1.51-1.39,3.16-2.23,4.68-2.92,2.06-5.84,3.99-8.9,5.78l5.29,.41-1.67,2.34c-2.5-.14-4.87-.41-7.37-.69-7.23,3.99-14.75,7.29-22.54,9.91,6.12,1.65,12.24,2.75,18.5,3.44l-2.36,2.2c-6.82-.96-13.49-2.34-20.03-4.27-6.54,1.93-13.22,3.3-20.03,4.27l-2.37-2.2c6.26-.69,12.52-1.93,18.5-3.44-7.79-2.61-15.3-5.92-22.54-9.91-2.5,.28-4.87,.55-7.37,.69l-1.67-2.34,5.29-.41c-3.06-1.79-6.12-3.71-8.9-5.78-.83-1.51-1.53-3.03-2.09-4.68,4.87,3.71,9.88,7.02,15.3,10.04,7.51-.96,15.02-2.48,22.26-4.54-7.23-2.61-14.33-5.78-21.15-9.49-5.7,.83-11.55,1.38-17.39,1.65l-.83-2.34c4.87-.14,9.88-.55,14.75-1.1-5.98-3.44-11.69-7.57-17.11-11.83l.14-2.75c6.12-.28,12.24-.83,18.22-1.93-5.29-3.03-10.29-6.47-15.02-10.18,.7-1.51,1.53-3.03,2.5-4.4,4.45-.41,9.04-1.1,13.49-1.93-2.36-1.38-4.73-2.89-7.09-4.4l2.23-1.51c2.78,1.93,5.7,3.58,8.63,5.23,6.4-1.38,12.66-3.16,18.92-5.23-4.73-1.93-9.46-3.99-14.05-6.33l3.62-.96c4.45,2.2,9.04,4.13,13.77,5.92,4.59-1.79,9.32-3.58,13.77-5.92l3.62,.96c-4.59,2.34-9.32,4.4-14.05,6.33,6.12,2.06,12.52,3.85,18.92,5.23,2.92-1.65,5.84-3.44,8.63-5.23l2.23,1.51c-2.36,1.51-4.73,3.03-7.09,4.4,4.45,.83,8.9,1.51,13.49,1.93,.97,1.38,1.81,2.89,2.5,4.4Z"/>
        <path class="cls-1" d="M320.17,113.51c6.54,3.58,13.49,6.47,20.59,8.81,7.09-2.34,13.91-5.37,20.59-8.81-6.96-1.24-13.91-3.03-20.59-5.23-6.82,2.2-13.63,3.99-20.59,5.23Z"/>
        <path class="cls-1" d="M340.76,105.39c6.82-2.34,13.36-5.23,19.75-8.53-6.68-1.38-13.36-3.3-19.75-5.5-6.4,2.34-13.08,4.13-19.75,5.5,6.4,3.3,12.94,6.19,19.75,8.53Z"/>
        <path class="cls-1" d="M337.56,89.98c-6.68-2.48-13.08-5.5-19.34-8.94-5.84,1.1-11.69,2.06-17.67,2.61,5.43,4.27,11.13,7.98,17.11,11.42,6.68-1.24,13.22-3.03,19.89-5.09Z"/>
        <path class="cls-1" d="M317.25,97.55c-6.12,1.1-12.24,1.79-18.36,2.2,5.7,4.4,11.55,8.39,17.81,11.83,6.96-1.1,13.91-2.61,20.73-4.82-6.96-2.48-13.77-5.5-20.17-9.22Z"/>
        <path class="cls-1" d="M359.68,80.07c-6.4-1.51-12.8-3.3-18.92-5.5-6.12,2.2-12.38,3.99-18.78,5.5,5.98,3.3,12.38,6.05,18.78,8.39,6.4-2.34,12.8-5.09,18.92-8.39Z"/>
        <path class="cls-1" d="M318.64,130.29c7.09,3.71,14.47,6.74,22.12,9.08,7.65-2.34,15.02-5.37,22.12-9.08-7.51-1.1-14.89-2.75-22.12-5.09-7.23,2.34-14.75,3.99-22.12,5.09Z"/>
        <path class="cls-1" d="M227.11,159.32c10.85,0,21.56-5.5,26.43-15.41,2.78,7.98,9.18,12.8,17.95,12.8,7.93,0,16-3.71,15.44-12.8,3.76-1.79,7.37-5.09,7.37-9.49,0-5.23-10.16-17.34-10.16-34.12,0-30.54,27.96-44.03,55.09-44.44h1.53c27.68,0,56.48,13.35,56.48,44.44,0,16.79-10.16,28.89-10.16,34.12,0,4.54,3.62,7.84,7.37,9.77,.14,8.81,7.37,12.52,15.44,12.52,8.76,0,15.02-4.82,17.95-12.8,4.87,9.91,15.58,15.41,26.43,15.41,16.14,0,24.9-13.62,24.9-28.48s-5.7-26.28-14.33-37.42c-19.62-25.32-59.82-40.04-91.26-42.24-3.76-3.85-8.35-7.02-13.22-9.22,1.53,.69,3.06,.96,4.59,.96,6.4,0,11.41-5.23,11.41-11.42s-5.15-11.42-11.41-11.42c-5.43,0-10.29,4.13-11.27,9.36-.7-.96-2.64-2.48-3.9-3.03,3.76-12.25,16.55-23.66,29.91-23.66,8.76,0,15.02,6.19,15.02,14.86,0,2.2-.42,4.68-1.11,6.74-.7-.83-1.81-1.38-2.92-1.38-2.09,0-3.76,1.65-3.76,3.71s1.67,3.71,3.76,3.71c4.31,0,6.68-9.49,6.68-12.8,0-10.18-7.37-17.47-17.67-17.47-14.33,0-28.1,11.97-32.41,25.04-2.09-.83-4.45-1.38-6.96-1.38s-4.73,.41-6.82,1.24c-3.9-13.07-17.67-25.04-32-25.04-10.29,0-17.67,7.29-17.67,17.47,0,3.58,1.81,12.8,6.68,12.8,2.09,0,3.76-1.65,3.76-3.71s-1.67-3.71-3.76-3.71c-1.11,0-2.23,.55-2.92,1.38-.7-2.06-1.11-4.54-1.11-6.74,0-8.81,6.26-14.86,15.02-14.86,13.36,0,26.15,11.42,29.91,23.66-1.39,.83-2.64,1.93-3.76,3.03-.97-5.23-5.84-9.36-11.27-9.36-6.4,0-11.41,5.23-11.41,11.42s5.15,11.42,11.41,11.42c1.53,0,3.2-.28,4.59-.96-4.87,2.2-9.46,5.37-13.22,9.22-31.44,2.2-71.64,16.92-91.26,42.24-8.63,11.14-14.33,23.25-14.33,37.56s8.76,28.48,24.9,28.48Zm54.12-58.89c0,15.96,10.16,31.37,10.16,33.98,0,3.99-4.03,6.74-7.51,7.98l.14,1.51c0,7.29-5.84,9.91-12.38,9.91-7.79,0-13.49-4.54-15.44-11.83,1.81,.55,3.76,.96,5.56,.96,7.79,0,11.96-5.64,15.3-11.69-6.26-2.48-10.85-5.78-10.85-13.07,0-12.25,11.27-26.83,18.5-35.77-2.64,5.5-3.48,11.83-3.48,18.02Zm128.54,53.38c-6.54,0-12.38-2.61-12.38-9.91l.14-1.51c-3.34-1.24-7.51-3.99-7.51-7.98,0-2.61,10.16-18.02,10.16-33.98,0-6.19-.83-12.38-3.34-18.16,7.23,9.08,18.5,23.53,18.5,35.77,0,7.29-4.59,10.59-10.85,13.07,3.34,6.19,7.51,11.69,15.3,11.69,1.95,0,3.76-.41,5.56-.96-2.09,7.43-7.79,11.97-15.58,11.97Zm-2.78-93.56c31.72,9.08,69.14,34.12,69.14,70.86,.14,12.93-7.37,25.32-21.84,25.32-11.96,0-23.09-7.15-25.46-19.12-2.78,1.38-5.84,2.75-9.04,2.75-5.01,0-8.63-3.3-11.13-7.43,6.12-2.89,9.6-7.98,9.6-14.72,0-22.01-30.74-54.07-51.47-60.81,1.11-.83,5.01-3.03,6.54-3.03,10.85,0,23.51,3.3,33.67,6.19Zm-42.01-37.01c4.59,0,8.35,3.85,8.35,8.26s-3.76,8.26-8.35,8.26-8.35-3.85-8.35-8.26c.14-4.54,3.9-8.26,8.35-8.26Zm-24.35,10.04c8.21,0,14.05,3.03,14.05,3.03,1.11,2.34,3.06,4.27,5.29,5.37-5.98-2.75-12.66-4.13-19.34-4.13s-13.36,1.38-19.34,4.13c2.36-1.1,4.31-3.16,5.43-5.5,.14,0,5.84-2.89,13.91-2.89Zm-24.21,6.47c-4.59,0-8.35-3.85-8.35-8.26s3.76-8.26,8.35-8.26,8.35,3.85,8.35,8.26-3.76,8.26-8.35,8.26Zm24.48,5.5c10.29,0,20.45,2.06,29.91,6.19-2.5,.69-4.59,2.48-6.54,4.13-7.37-3.71-15.44-5.37-23.51-5.37s-16.14,1.65-23.23,5.37c-1.95-1.65-4.03-3.44-6.54-4.13,9.46-4.13,19.62-6.19,29.91-6.19Zm-66.5,14.86c10.29-2.89,22.95-6.19,33.67-6.19,1.53,0,5.43,2.2,6.54,3.03-20.73,6.88-51.33,38.94-51.33,60.95h0c0,6.74,3.48,11.83,9.6,14.72-2.5,3.99-6.12,7.43-11.13,7.43-3.2,0-6.26-1.38-9.04-2.75-2.23,11.97-13.49,19.12-25.46,19.12-14.47,0-21.98-12.52-21.98-25.59,0-36.6,37.28-61.78,69.14-70.72Z"/>
        <path class="cls-1" d="M228.5,149.01c8.49,0,15.44-6.6,15.72-15,1.67,1.65,3.9,2.61,6.26,2.61,5.7,0,10.57-4.68,10.57-10.46,0-4.27-2.23-8.12-5.7-10.59,4.73-2.34,7.79-7.29,7.79-12.52,0-6.33-5.29-11.56-11.69-11.56-5.29,0-9.6,4.4-9.6,9.49,0,3.71,3.34,7.84,7.93,7.84,2.37,0,4.45-1.65,4.45-4.13,0-2.2-1.67-3.85-3.9-3.85-2.09,0-3.9,1.65-3.9,3.71-.97-.96-1.67-2.2-1.67-3.58,0-3.58,3.06-6.6,6.68-6.6,4.73,0,8.76,3.99,8.76,8.67,0,6.05-5.15,11.14-11.27,11.14-7.93,0-14.47-6.47-14.47-14.31,0-8.26,7.93-18.3,16.69-18.3,6.12,0,12.24,3.3,18.5,3.3,5.84,0,11.41-4.54,11.41-10.46,.14-4.95-3.62-9.49-8.63-9.49-4.03,0-7.93,3.16-7.93,7.7,0,2.34,1.25,5.09,3.2,5.09,.83,0,1.53-.41,1.53-1.38,0-1.38-1.81-.55-1.81-4.13,0-2.48,2.5-4.27,4.87-4.27,3.48,0,5.84,3.3,5.84,6.47,0,4.4-4.31,7.57-8.49,7.57-6.54,0-14.47-3.58-21.01-3.03,.83-.55,6.54-3.99,7.51-4.54,1.11-.41,1.25-1.1,1.11-1.79-.28-.83-1.11-.55-1.67-.41-20.73,8.26-42.99,34.81-42.99,57.37,0,10.04,4.17,19.4,15.86,19.4Zm4.73-57.1c-1.11,2.48-1.67,5.09-1.67,7.84,0,10.32,9.46,18.85,19.89,17.06h0c4.03,2.06,6.68,4.4,6.68,9.22,0,4.13-3.48,7.43-7.51,7.43-3.2,0-5.7-2.61-5.7-5.64,0-2.34,1.95-4.27,4.31-4.27,4.03,0,2.23,4.54,4.59,4.54,.83,0,1.39-.41,1.39-1.38,0-3.3-2.78-6.05-6.12-6.05-2.92,0-5.7,1.93-6.82,4.68-.7-1.1-1.39-2.61-2.92-2.61-.97,0-1.67,.96-1.11,1.65l.28,.69c1.81,2.89,2.78,4.54,2.78,8.12,0,7.02-5.84,12.66-12.8,12.66-10.16,0-12.94-8.26-12.94-16.51,0-15.27,7.37-26.69,17.67-37.42Z"/>
        <path class="cls-1" d="M344.1,89.98h0c6.4,2.06,13.08,3.85,19.75,5.09,6.12-3.44,11.82-7.15,17.25-11.42-5.98-.55-11.82-1.38-17.67-2.61-6.26,3.44-12.66,6.47-19.34,8.94Z"/>
        <path class="cls-1" d="M344.1,106.9c6.82,2.06,13.77,3.71,20.73,4.82,6.26-3.44,12.24-7.43,17.81-11.83h0c-6.12-.41-12.24-1.24-18.36-2.2-6.54,3.58-13.22,6.6-20.17,9.22Z"/>
      </g>
    </g>
  </g>
</svg>